<svg xmlns="http://www.w3.org/2000/svg" xmlns:xlink="http://www.w3.org/1999/xlink" width="1587" zoomAndPan="magnify" viewBox="0 0 1190.25 1683.749945" height="2245" preserveAspectRatio="xMidYMid meet" version="1.0"><defs><g/></defs><g fill="#ffffff" fill-opacity="1"><g transform="translate(358.487119, 881.109247)"><g><path d="M 40.417969 1.875 C 53.472656 1.875 62.148438 -6.175781 62.148438 -15.949219 L 62.148438 -46.125 C 62.148438 -47.921875 61.367188 -49.015625 59.179688 -49.015625 L 42.761719 -49.015625 C 40.964844 -49.015625 39.554688 -47.921875 39.554688 -45.808594 L 39.554688 -41.824219 C 39.554688 -36.585938 40.496094 -33.378906 44.871094 -33.222656 L 44.871094 -16.730469 C 44.871094 -15.164062 43.386719 -13.132812 40.730469 -13.132812 C 38.382812 -13.132812 36.742188 -15.007812 36.742188 -16.730469 L 36.742188 -88.335938 C 36.742188 -90.058594 38.539062 -91.933594 40.730469 -91.933594 C 43.074219 -91.933594 44.949219 -90.058594 44.949219 -88.335938 L 44.949219 -63.554688 C 44.949219 -60.820312 47.84375 -59.335938 50.421875 -59.335938 L 59.179688 -59.335938 C 61.367188 -59.335938 62.148438 -60.351562 62.148438 -62.226562 L 62.148438 -89.121094 C 62.148438 -98.734375 53.863281 -106.707031 41.121094 -106.941406 C 27.988281 -106.941406 19.386719 -98.890625 19.386719 -89.121094 L 19.386719 -15.949219 C 19.386719 -6.175781 27.675781 1.875 40.417969 1.875 Z M 40.417969 1.875 "/></g></g></g><g fill="#ffffff" fill-opacity="1"><g transform="translate(439.861625, 881.109247)"><g><path d="M 45.574219 -90.605469 C 50.34375 -90.605469 53.003906 -93.886719 53.003906 -99.28125 L 53.003906 -101.863281 C 53.003906 -103.894531 51.671875 -105.066406 49.640625 -105.066406 L 22.671875 -105.066406 C 20.167969 -105.066406 19.542969 -104.207031 19.542969 -101.863281 L 19.542969 -3.128906 C 19.542969 -0.78125 20.167969 0 22.75 0 L 49.640625 0 C 51.671875 0 53.003906 -1.171875 53.003906 -3.207031 L 53.003906 -5.785156 C 53.003906 -11.257812 50.34375 -14.460938 45.574219 -14.460938 L 36.898438 -14.460938 L 36.898438 -44.792969 L 42.917969 -44.792969 C 47.6875 -44.792969 50.265625 -48.15625 50.265625 -53.472656 L 50.265625 -56.050781 C 50.265625 -58.164062 48.9375 -59.257812 46.984375 -59.257812 L 36.898438 -59.257812 L 36.898438 -90.605469 Z M 45.574219 -90.605469 "/></g></g></g><g fill="#ffffff" fill-opacity="1"><g transform="translate(511.308597, 881.109247)"><g><path d="M 34.476562 -16.339844 L 41.433594 -16.339844 L 41.980469 -6.019531 C 42.136719 -2.578125 45.339844 0 48.390625 0 L 56.832031 0 C 59.023438 0 59.648438 -0.546875 59.648438 -2.109375 C 59.648438 -2.34375 59.570312 -2.65625 59.570312 -3.046875 L 49.953125 -101.707031 C 49.640625 -104.285156 48.703125 -105.066406 46.203125 -105.066406 L 29.785156 -105.066406 C 27.203125 -105.066406 26.1875 -104.285156 25.953125 -101.707031 L 16.417969 -3.046875 C 16.339844 -2.65625 16.339844 -2.34375 16.339844 -2.03125 C 16.339844 -0.546875 16.964844 0 19.152344 0 L 27.597656 0 C 30.566406 0 33.773438 -2.578125 33.929688 -6.019531 Z M 35.101562 -30.097656 L 37.992188 -87.554688 L 40.808594 -30.097656 Z M 35.101562 -30.097656 "/></g></g></g><g fill="#ffffff" fill-opacity="1"><g transform="translate(587.523912, 881.109247)"><g><path d="M 30.722656 0 C 33.851562 0 36.742188 -2.65625 36.742188 -5.941406 L 36.742188 -40.339844 L 40.730469 -40.339844 C 43.152344 -40.339844 44.871094 -38.460938 44.871094 -36.742188 L 44.871094 -5.941406 C 44.871094 -2.65625 47.6875 0 50.734375 0 L 59.023438 0 C 61.523438 0 62.148438 -0.859375 62.148438 -3.207031 L 62.148438 -36.820312 C 62.148438 -42.371094 59.414062 -45.261719 54.722656 -46.75 C 59.414062 -49.015625 62.148438 -52.847656 62.148438 -58.476562 L 62.148438 -87.164062 C 62.148438 -96.703125 54.019531 -105.066406 41.121094 -105.066406 L 22.515625 -105.066406 C 20.011719 -105.066406 19.386719 -104.207031 19.386719 -101.863281 L 19.386719 -3.207031 C 19.386719 -0.859375 20.011719 0 22.515625 0 Z M 40.730469 -90.605469 C 43.152344 -90.605469 44.871094 -88.730469 44.871094 -87.007812 L 44.871094 -58.710938 C 44.871094 -56.832031 43.230469 -54.722656 41.042969 -54.722656 L 36.742188 -54.722656 L 36.742188 -90.605469 Z M 40.730469 -90.605469 "/></g></g></g><g fill="#ffffff" fill-opacity="1"><g transform="translate(669.054757, 881.109247)"><g><path d="M 19.386719 -3.207031 C 19.386719 -0.859375 20.011719 0 22.515625 0 L 30.722656 0 C 33.851562 0 36.742188 -2.65625 36.742188 -5.941406 L 36.742188 -46.59375 L 39.085938 -46.59375 L 45.105469 -6.019531 C 45.339844 -2.5 49.25 0 52.222656 0 L 61.289062 0 C 63.242188 0 63.789062 -0.46875 63.789062 -1.5625 C 63.789062 -1.953125 63.710938 -2.5 63.632812 -3.046875 L 55.894531 -53.238281 L 63.632812 -102.019531 C 63.710938 -102.566406 63.789062 -103.113281 63.789062 -103.503906 C 63.789062 -104.597656 63.242188 -105.066406 61.289062 -105.066406 L 52.222656 -105.066406 C 49.25 -105.066406 45.730469 -102.566406 45.105469 -99.046875 L 39.242188 -60.664062 L 36.742188 -60.664062 L 36.742188 -99.125 C 36.742188 -102.410156 33.773438 -105.066406 30.722656 -105.066406 L 22.515625 -105.066406 C 20.011719 -105.066406 19.386719 -104.207031 19.386719 -101.863281 Z M 19.386719 -3.207031 "/></g></g></g><g fill="#ffffff" fill-opacity="1"><g transform="translate(750.272923, 881.109247)"><g><path d="M 22.515625 -105.066406 C 20.011719 -105.066406 19.386719 -104.207031 19.386719 -101.863281 L 19.386719 -15.949219 C 19.386719 -6.332031 27.910156 1.875 41.121094 1.875 C 53.941406 1.875 62.148438 -6.410156 62.148438 -15.949219 L 62.148438 -101.863281 C 62.148438 -104.207031 61.523438 -105.066406 59.023438 -105.066406 L 50.734375 -105.066406 C 47.6875 -105.066406 44.871094 -102.410156 44.871094 -99.125 L 44.871094 -16.730469 C 44.871094 -15.007812 43.152344 -13.132812 40.730469 -13.132812 C 38.226562 -13.132812 36.742188 -15.085938 36.742188 -16.730469 L 36.742188 -99.125 C 36.742188 -102.410156 33.773438 -105.066406 30.722656 -105.066406 Z M 22.515625 -105.066406 "/></g></g></g><g fill="#ffffff" fill-opacity="1"><g transform="translate(468.268687, 924.086848)"><g><path d="M 6.730469 0.3125 C 8.902344 0.3125 10.347656 -1.027344 10.347656 -2.65625 L 10.347656 -7.679688 C 10.347656 -7.980469 10.21875 -8.160156 9.855469 -8.160156 L 7.121094 -8.160156 C 6.820312 -8.160156 6.585938 -7.980469 6.585938 -7.628906 L 6.585938 -6.964844 C 6.585938 -6.09375 6.742188 -5.558594 7.472656 -5.53125 L 7.472656 -2.785156 C 7.472656 -2.523438 7.222656 -2.1875 6.78125 -2.1875 C 6.390625 -2.1875 6.117188 -2.5 6.117188 -2.785156 L 6.117188 -14.707031 C 6.117188 -14.996094 6.417969 -15.308594 6.78125 -15.308594 C 7.171875 -15.308594 7.484375 -14.996094 7.484375 -14.707031 L 7.484375 -10.582031 C 7.484375 -10.128906 7.964844 -9.878906 8.394531 -9.878906 L 9.855469 -9.878906 C 10.21875 -9.878906 10.347656 -10.050781 10.347656 -10.363281 L 10.347656 -14.839844 C 10.347656 -16.441406 8.96875 -17.769531 6.847656 -17.808594 C 4.660156 -17.808594 3.226562 -16.464844 3.226562 -14.839844 L 3.226562 -2.65625 C 3.226562 -1.027344 4.609375 0.3125 6.730469 0.3125 Z M 6.730469 0.3125 "/></g></g></g><g fill="#ffffff" fill-opacity="1"><g transform="translate(481.818324, 924.086848)"><g><path d="M 6.117188 -6.054688 L 7.066406 -6.054688 C 7.875 -6.054688 8.355469 -6.546875 8.355469 -7.484375 L 8.355469 -7.925781 C 8.355469 -8.265625 8.136719 -8.460938 7.796875 -8.460938 L 6.117188 -8.460938 L 6.117188 -12.339844 L 7.5625 -12.339844 C 8.355469 -12.339844 8.800781 -12.875 8.800781 -13.785156 L 8.800781 -14.214844 C 8.800781 -14.554688 8.578125 -14.746094 8.238281 -14.746094 L 4.023438 -14.746094 C 3.398438 -14.746094 3.226562 -14.722656 3.226562 -14.214844 L 3.226562 -0.519531 C 3.226562 -0.128906 3.332031 0 3.761719 0 L 8.238281 0 C 8.578125 0 8.800781 -0.195312 8.800781 -0.535156 L 8.800781 -0.964844 C 8.800781 -1.886719 8.371094 -2.40625 7.5625 -2.40625 L 6.117188 -2.40625 Z M 6.117188 -6.054688 "/></g></g></g><g fill="#ffffff" fill-opacity="1"><g transform="translate(493.454615, 924.086848)"><g><path d="M 4.710938 -14.746094 C 4.308594 -14.746094 4.152344 -14.59375 4.113281 -14.1875 L 2.695312 -0.507812 L 2.695312 -0.363281 C 2.695312 -0.105469 2.773438 0 3.164062 0 L 4.554688 0 C 5.0625 0 5.570312 -0.429688 5.597656 -1.003906 L 5.648438 -2.277344 L 6.546875 -2.277344 L 6.613281 -1.003906 C 6.625 -0.429688 7.160156 0 7.652344 0 L 9.046875 0 C 9.410156 0 9.515625 -0.0898438 9.515625 -0.324219 C 9.515625 -0.378906 9.515625 -0.441406 9.503906 -0.507812 L 8.097656 -14.1875 C 8.058594 -14.59375 7.902344 -14.746094 7.484375 -14.746094 Z M 5.742188 -4.335938 L 6.078125 -11.949219 L 6.117188 -11.960938 L 6.457031 -4.335938 Z M 5.742188 -4.335938 "/></g></g></g><g fill="#ffffff" fill-opacity="1"><g transform="translate(505.689638, 924.086848)"><g><path d="M 5.117188 0 C 5.636719 0 6.117188 -0.441406 6.117188 -0.988281 L 6.117188 -5.492188 L 6.78125 -5.492188 C 7.183594 -5.492188 7.472656 -5.179688 7.472656 -4.894531 L 7.472656 -0.988281 C 7.472656 -0.441406 7.941406 0 8.449219 0 L 9.828125 0 C 10.246094 0 10.347656 -0.144531 10.347656 -0.535156 L 10.347656 -4.90625 C 10.347656 -5.832031 9.894531 -6.3125 9.113281 -6.558594 C 9.894531 -6.9375 10.347656 -7.574219 10.347656 -8.511719 L 10.347656 -11.78125 C 10.347656 -13.367188 8.996094 -14.761719 6.847656 -14.761719 L 3.75 -14.761719 C 3.332031 -14.761719 3.226562 -14.617188 3.226562 -14.226562 L 3.226562 -0.535156 C 3.226562 -0.144531 3.332031 0 3.75 0 Z M 6.78125 -12.351562 C 7.183594 -12.351562 7.472656 -12.039062 7.472656 -11.753906 L 7.472656 -8.550781 C 7.472656 -8.238281 7.199219 -7.886719 6.832031 -7.886719 L 6.117188 -7.886719 L 6.117188 -12.351562 Z M 6.78125 -12.351562 "/></g></g></g><g fill="#ffffff" fill-opacity="1"><g transform="translate(519.265305, 924.086848)"><g><path d="M 5.117188 0 C 5.625 0 6.117188 -0.441406 6.117188 -0.988281 L 6.117188 -6.3125 L 6.546875 -6.3125 L 7.511719 -0.847656 C 7.601562 -0.351562 8.199219 0 8.695312 0 L 10.207031 0 C 10.53125 0 10.621094 -0.0507812 10.621094 -0.222656 C 10.621094 -0.285156 10.609375 -0.351562 10.59375 -0.441406 L 9.308594 -7.472656 L 10.59375 -14.304688 C 10.609375 -14.398438 10.621094 -14.460938 10.621094 -14.527344 C 10.621094 -14.695312 10.53125 -14.746094 10.207031 -14.746094 L 8.695312 -14.746094 C 8.199219 -14.746094 7.613281 -14.410156 7.511719 -13.902344 L 6.558594 -8.65625 L 6.117188 -8.65625 L 6.117188 -13.757812 C 6.117188 -14.304688 5.636719 -14.746094 5.117188 -14.746094 L 3.75 -14.746094 C 3.332031 -14.746094 3.226562 -14.605469 3.226562 -14.214844 L 3.226562 -0.535156 C 3.226562 -0.144531 3.332031 0 3.75 0 Z M 5.117188 0 "/></g></g></g><g fill="#ffffff" fill-opacity="1"><g transform="translate(532.788912, 924.086848)"><g><path d="M 3.75 -14.761719 C 3.332031 -14.761719 3.226562 -14.617188 3.226562 -14.226562 L 3.226562 -2.65625 C 3.226562 -1.054688 4.648438 0.3125 6.847656 0.3125 C 8.980469 0.3125 10.347656 -1.066406 10.347656 -2.65625 L 10.347656 -14.226562 C 10.347656 -14.617188 10.246094 -14.761719 9.828125 -14.761719 L 8.449219 -14.761719 C 7.941406 -14.761719 7.472656 -14.320312 7.472656 -13.773438 L 7.472656 -2.785156 C 7.472656 -2.5 7.183594 -2.1875 6.78125 -2.1875 C 6.363281 -2.1875 6.117188 -2.511719 6.117188 -2.785156 L 6.117188 -13.773438 C 6.117188 -14.320312 5.625 -14.761719 5.117188 -14.761719 Z M 3.75 -14.761719 "/></g></g></g><g fill="#ffffff" fill-opacity="1"><g transform="translate(546.364579, 924.086848)"><g/></g></g><g fill="#ffffff" fill-opacity="1"><g transform="translate(555.762122, 924.086848)"><g><path d="M 4.710938 -14.746094 C 4.308594 -14.746094 4.152344 -14.59375 4.113281 -14.1875 L 2.695312 -0.507812 L 2.695312 -0.363281 C 2.695312 -0.105469 2.773438 0 3.164062 0 L 4.554688 0 C 5.0625 0 5.570312 -0.429688 5.597656 -1.003906 L 5.648438 -2.277344 L 6.546875 -2.277344 L 6.613281 -1.003906 C 6.625 -0.429688 7.160156 0 7.652344 0 L 9.046875 0 C 9.410156 0 9.515625 -0.0898438 9.515625 -0.324219 C 9.515625 -0.378906 9.515625 -0.441406 9.503906 -0.507812 L 8.097656 -14.1875 C 8.058594 -14.59375 7.902344 -14.746094 7.484375 -14.746094 Z M 5.742188 -4.335938 L 6.078125 -11.949219 L 6.117188 -11.960938 L 6.457031 -4.335938 Z M 5.742188 -4.335938 "/></g></g></g><g fill="#ffffff" fill-opacity="1"><g transform="translate(567.997145, 924.086848)"><g><path d="M 3.75 -14.746094 C 3.332031 -14.746094 3.226562 -14.605469 3.226562 -14.214844 L 3.226562 -0.535156 C 3.226562 -0.144531 3.332031 0 3.75 0 L 6.742188 0 C 8.890625 0 10.347656 -1.316406 10.347656 -2.992188 L 10.347656 -11.765625 C 10.347656 -13.355469 9.007812 -14.746094 6.847656 -14.746094 Z M 7.472656 -3.007812 C 7.472656 -2.734375 7.183594 -2.40625 6.832031 -2.40625 L 6.117188 -2.40625 L 6.117188 -12.339844 L 6.78125 -12.339844 C 7.183594 -12.339844 7.472656 -12.027344 7.472656 -11.742188 Z M 7.472656 -3.007812 "/></g></g></g><g fill="#ffffff" fill-opacity="1"><g transform="translate(581.572812, 924.086848)"><g><path d="M 4.710938 -14.746094 C 4.308594 -14.746094 4.152344 -14.59375 4.113281 -14.1875 L 2.695312 -0.507812 L 2.695312 -0.363281 C 2.695312 -0.105469 2.773438 0 3.164062 0 L 4.554688 0 C 5.0625 0 5.570312 -0.429688 5.597656 -1.003906 L 5.648438 -2.277344 L 6.546875 -2.277344 L 6.613281 -1.003906 C 6.625 -0.429688 7.160156 0 7.652344 0 L 9.046875 0 C 9.410156 0 9.515625 -0.0898438 9.515625 -0.324219 C 9.515625 -0.378906 9.515625 -0.441406 9.503906 -0.507812 L 8.097656 -14.1875 C 8.058594 -14.59375 7.902344 -14.746094 7.484375 -14.746094 Z M 5.742188 -4.335938 L 6.078125 -11.949219 L 6.117188 -11.960938 L 6.457031 -4.335938 Z M 5.742188 -4.335938 "/></g></g></g><g fill="#ffffff" fill-opacity="1"><g transform="translate(593.807835, 924.086848)"><g><path d="M 8.148438 0 C 8.488281 0 8.695312 -0.195312 8.695312 -0.535156 L 8.695312 -0.964844 C 8.695312 -1.875 8.265625 -2.40625 7.484375 -2.40625 L 6.117188 -2.40625 L 6.117188 -13.746094 C 6.117188 -14.304688 5.636719 -14.746094 5.117188 -14.746094 L 3.75 -14.746094 C 3.332031 -14.746094 3.226562 -14.605469 3.226562 -14.214844 L 3.226562 -0.546875 C 3.226562 -0.144531 3.332031 0 3.734375 0 Z M 8.148438 0 "/></g></g></g><g fill="#ffffff" fill-opacity="1"><g transform="translate(605.248885, 924.086848)"><g><path d="M 4.710938 -14.746094 C 4.308594 -14.746094 4.152344 -14.59375 4.113281 -14.1875 L 2.695312 -0.507812 L 2.695312 -0.363281 C 2.695312 -0.105469 2.773438 0 3.164062 0 L 4.554688 0 C 5.0625 0 5.570312 -0.429688 5.597656 -1.003906 L 5.648438 -2.277344 L 6.546875 -2.277344 L 6.613281 -1.003906 C 6.625 -0.429688 7.160156 0 7.652344 0 L 9.046875 0 C 9.410156 0 9.515625 -0.0898438 9.515625 -0.324219 C 9.515625 -0.378906 9.515625 -0.441406 9.503906 -0.507812 L 8.097656 -14.1875 C 8.058594 -14.59375 7.902344 -14.746094 7.484375 -14.746094 Z M 5.742188 -4.335938 L 6.078125 -11.949219 L 6.117188 -11.960938 L 6.457031 -4.335938 Z M 5.742188 -4.335938 "/></g></g></g><g fill="#ffffff" fill-opacity="1"><g transform="translate(617.483908, 924.086848)"><g><path d="M 3.75 -14.746094 C 3.332031 -14.746094 3.226562 -14.605469 3.226562 -14.214844 L 3.226562 -0.535156 C 3.226562 -0.144531 3.332031 0 3.75 0 L 5.117188 0 C 5.625 0 6.117188 -0.441406 6.117188 -0.988281 L 6.117188 -6.195312 L 7.355469 -6.195312 L 7.355469 -0.976562 C 7.355469 -0.429688 7.835938 0.0117188 8.34375 0.0117188 L 9.722656 0.0117188 C 10.140625 0.0117188 10.246094 -0.128906 10.246094 -0.535156 L 10.246094 -14.214844 C 10.246094 -14.605469 10.140625 -14.746094 9.710938 -14.746094 L 8.34375 -14.746094 C 7.835938 -14.746094 7.355469 -14.304688 7.355469 -13.757812 L 7.355469 -8.539062 L 6.117188 -8.539062 L 6.117188 -13.746094 C 6.117188 -14.304688 5.636719 -14.746094 5.117188 -14.746094 Z M 3.75 -14.746094 "/></g></g></g><g fill="#ffffff" fill-opacity="1"><g transform="translate(630.955455, 924.086848)"><g/></g></g><g fill="#ffffff" fill-opacity="1"><g transform="translate(640.352999, 924.086848)"><g><path d="M 6.730469 0.3125 C 8.902344 0.3125 10.347656 -1.027344 10.347656 -2.65625 L 10.347656 -7.210938 C 10.347656 -7.523438 10.21875 -7.691406 9.855469 -7.691406 L 7.121094 -7.691406 C 6.820312 -7.691406 6.585938 -7.523438 6.585938 -7.160156 L 6.585938 -6.496094 C 6.585938 -5.625 6.742188 -5.089844 7.472656 -5.0625 L 7.472656 -2.785156 C 7.472656 -2.523438 7.222656 -2.1875 6.78125 -2.1875 C 6.390625 -2.1875 6.117188 -2.5 6.117188 -2.785156 L 6.117188 -11.976562 C 6.117188 -12.261719 6.417969 -12.574219 6.78125 -12.574219 C 7.171875 -12.574219 7.484375 -12.261719 7.484375 -11.976562 L 7.484375 -9.621094 C 7.484375 -9.175781 7.964844 -8.929688 8.394531 -8.929688 L 9.855469 -8.929688 C 10.21875 -8.929688 10.347656 -9.097656 10.347656 -9.410156 L 10.347656 -12.09375 C 10.347656 -13.707031 8.96875 -15.035156 6.847656 -15.074219 C 4.660156 -15.074219 3.226562 -13.71875 3.226562 -12.09375 L 3.226562 -2.65625 C 3.226562 -1.027344 4.609375 0.3125 6.730469 0.3125 Z M 6.730469 0.3125 "/></g></g></g><g fill="#ffffff" fill-opacity="1"><g transform="translate(653.993746, 924.086848)"><g><path d="M 6.117188 -6.054688 L 7.066406 -6.054688 C 7.875 -6.054688 8.355469 -6.546875 8.355469 -7.484375 L 8.355469 -7.925781 C 8.355469 -8.265625 8.136719 -8.460938 7.796875 -8.460938 L 6.117188 -8.460938 L 6.117188 -12.339844 L 7.5625 -12.339844 C 8.355469 -12.339844 8.800781 -12.875 8.800781 -13.785156 L 8.800781 -14.214844 C 8.800781 -14.554688 8.578125 -14.746094 8.238281 -14.746094 L 4.023438 -14.746094 C 3.398438 -14.746094 3.226562 -14.722656 3.226562 -14.214844 L 3.226562 -0.519531 C 3.226562 -0.128906 3.332031 0 3.761719 0 L 8.238281 0 C 8.578125 0 8.800781 -0.195312 8.800781 -0.535156 L 8.800781 -0.964844 C 8.800781 -1.886719 8.371094 -2.40625 7.5625 -2.40625 L 6.117188 -2.40625 Z M 6.117188 -6.054688 "/></g></g></g><g fill="#ffffff" fill-opacity="1"><g transform="translate(665.630037, 924.086848)"><g><path d="M 4.710938 -14.746094 C 4.308594 -14.746094 4.152344 -14.59375 4.113281 -14.1875 L 2.695312 -0.507812 L 2.695312 -0.363281 C 2.695312 -0.105469 2.773438 0 3.164062 0 L 4.554688 0 C 5.0625 0 5.570312 -0.429688 5.597656 -1.003906 L 5.648438 -2.277344 L 6.546875 -2.277344 L 6.613281 -1.003906 C 6.625 -0.429688 7.160156 0 7.652344 0 L 9.046875 0 C 9.410156 0 9.515625 -0.0898438 9.515625 -0.324219 C 9.515625 -0.378906 9.515625 -0.441406 9.503906 -0.507812 L 8.097656 -14.1875 C 8.058594 -14.59375 7.902344 -14.746094 7.484375 -14.746094 Z M 5.742188 -4.335938 L 6.078125 -11.949219 L 6.117188 -11.960938 L 6.457031 -4.335938 Z M 5.742188 -4.335938 "/></g></g></g><g fill="#ffffff" fill-opacity="1"><g transform="translate(677.86506, 924.086848)"><g><path d="M 5.117188 0 C 5.636719 0 6.117188 -0.441406 6.117188 -0.988281 L 6.117188 -5.492188 L 6.78125 -5.492188 C 7.183594 -5.492188 7.472656 -5.179688 7.472656 -4.894531 L 7.472656 -0.988281 C 7.472656 -0.441406 7.941406 0 8.449219 0 L 9.828125 0 C 10.246094 0 10.347656 -0.144531 10.347656 -0.535156 L 10.347656 -4.90625 C 10.347656 -5.832031 9.894531 -6.3125 9.113281 -6.558594 C 9.894531 -6.9375 10.347656 -7.574219 10.347656 -8.511719 L 10.347656 -11.78125 C 10.347656 -13.367188 8.996094 -14.761719 6.847656 -14.761719 L 3.75 -14.761719 C 3.332031 -14.761719 3.226562 -14.617188 3.226562 -14.226562 L 3.226562 -0.535156 C 3.226562 -0.144531 3.332031 0 3.75 0 Z M 6.78125 -12.351562 C 7.183594 -12.351562 7.472656 -12.039062 7.472656 -11.753906 L 7.472656 -8.550781 C 7.472656 -8.238281 7.199219 -7.886719 6.832031 -7.886719 L 6.117188 -7.886719 L 6.117188 -12.351562 Z M 6.78125 -12.351562 "/></g></g></g><g fill="#ffffff" fill-opacity="1"><g transform="translate(691.440727, 924.086848)"><g><path d="M 3.734375 -14.746094 C 3.292969 -14.746094 3.226562 -14.632812 3.226562 -14.242188 L 3.226562 -0.546875 C 3.226562 -0.144531 3.382812 0 3.773438 0 L 5.089844 0 C 5.675781 0 6.132812 -0.441406 6.117188 -1.027344 L 5.570312 -9.410156 L 5.703125 -10.011719 L 7.003906 -0.558594 C 7.042969 -0.144531 7.199219 0 7.613281 0 L 9.28125 0 C 9.683594 0 9.855469 -0.144531 9.894531 -0.558594 L 11.179688 -10.023438 L 11.335938 -9.410156 L 10.789062 -1.027344 C 10.777344 -0.441406 11.234375 0 11.820312 0 L 13.132812 0 C 13.523438 0 13.679688 -0.144531 13.679688 -0.546875 L 13.679688 -14.242188 C 13.679688 -14.632812 13.601562 -14.746094 13.160156 -14.746094 L 11.46875 -14.746094 C 10.554688 -14.746094 9.660156 -14.683594 9.554688 -13.746094 L 8.449219 -4.242188 L 7.328125 -13.746094 C 7.289062 -14.320312 6.753906 -14.746094 6.261719 -14.746094 Z M 3.734375 -14.746094 "/></g></g></g><g fill="#ffffff" fill-opacity="1"><g transform="translate(708.452605, 924.086848)"><g><path d="M 3.75 -14.761719 C 3.332031 -14.761719 3.226562 -14.617188 3.226562 -14.226562 L 3.226562 -2.65625 C 3.226562 -1.054688 4.648438 0.3125 6.847656 0.3125 C 8.980469 0.3125 10.347656 -1.066406 10.347656 -2.65625 L 10.347656 -14.226562 C 10.347656 -14.617188 10.246094 -14.761719 9.828125 -14.761719 L 8.449219 -14.761719 C 7.941406 -14.761719 7.472656 -14.320312 7.472656 -13.773438 L 7.472656 -2.785156 C 7.472656 -2.5 7.183594 -2.1875 6.78125 -2.1875 C 6.363281 -2.1875 6.117188 -2.511719 6.117188 -2.785156 L 6.117188 -13.773438 C 6.117188 -14.320312 5.625 -14.761719 5.117188 -14.761719 Z M 3.75 -14.761719 "/></g></g></g></svg>